<svg width="971" height="1014" viewBox="0 0 971 1014" fill="none" xmlns="http://www.w3.org/2000/svg">
<path fill-rule="evenodd" clip-rule="evenodd" d="M-22.2044 353.082C44.4447 233.959 -57.3837 113.725 -43 66C-22.2044 -3.00001 7.9522e-08 -31.5 42.5 -54C61.5697 -64.0957 331.169 -108.942 421.66 -94.1253C483.5 -84 676 22 730.157 78.478C768.535 118.5 960.946 261.952 969.806 412.012C978.848 565.167 899.253 713.088 796.199 824.029C701.073 926.434 563.718 965.969 428.82 994.401C307.274 1020.02 181.015 1025.95 66.067 977.92C-43.7293 932.043 -47.2822 831.286 -133 686.5C-189.179 591.61 -76.3211 449.805 -22.2044 353.082Z" fill="#DA803C" fill-opacity="0.4"/>
</svg>
