<svg width="9" height="14" viewBox="0 0 9 14" fill="none"  xmlns="http://www.w3.org/2000/svg">
<path d="M8.57613 8.63C8.57613 9.39533 8.29613 10.0533 7.73613 10.604C7.17613 11.1453 6.3688 11.4813 5.31413 11.612V13.18H3.91413V11.654C3.22347 11.6167 2.56547 11.4953 1.94013 11.29C1.3148 11.0847 0.8108 10.8327 0.428133 10.534L1.19813 8.826C1.5528 9.08733 1.96813 9.30667 2.44413 9.484C2.92013 9.66133 3.41013 9.77333 3.91413 9.82V7.482C3.25147 7.32333 2.69147 7.146 2.23413 6.95C1.7768 6.754 1.39413 6.46933 1.08613 6.096C0.778133 5.71333 0.624133 5.20933 0.624133 4.584C0.624133 3.80933 0.904133 3.14667 1.46413 2.596C2.03347 2.036 2.85013 1.69533 3.91413 1.574V0.0199993H5.31413V1.546C6.46213 1.63933 7.40947 1.924 8.15613 2.4L7.45613 4.122C6.75613 3.72067 6.04213 3.478 5.31413 3.394V5.774C5.96747 5.92333 6.51813 6.096 6.96613 6.292C7.42347 6.47867 7.80613 6.76333 8.11413 7.146C8.42213 7.51933 8.57613 8.014 8.57613 8.63ZM2.87813 4.472C2.87813 4.70533 2.9668 4.89667 3.14413 5.046C3.32147 5.19533 3.57813 5.32133 3.91413 5.424V3.436C3.55947 3.52 3.29813 3.65533 3.13013 3.842C2.96213 4.01933 2.87813 4.22933 2.87813 4.472ZM5.31413 9.764C5.65013 9.68933 5.90213 9.568 6.07013 9.4C6.23813 9.232 6.32213 9.03133 6.32213 8.798C6.32213 8.56467 6.23347 8.37333 6.05613 8.224C5.88813 8.07467 5.6408 7.944 5.31413 7.832V9.764Z" fill="white"/>
</svg>
